# xmcd
#
# Track frame offsets:
#	150
#	19122
#	41464
#	58973
#	78693
#	98890
#	122059
#	142329
#	159623
#	178745
#	197892
#	221159
#	246189
#	270291
#	289868
#	315670
#	334587
#
# Disc length: 4738 seconds
#
# Revision: 1
# Processed by: cddbd v1.5PL3 Copyright (c) Steve Scherf et al.
# Submitted via: CDex 1.50Beta5
#
DISCID=07128011
DTITLE=Boyz II Men - Nathan Michael Shawn Wanya
DYEAR=2000
DGENRE=R&B
TTITLE0=Beautiful Women
TTITLE1=Step On Up
TTITLE2=Good Guy
TTITLE3=Bounce Shake Move Swing
TTITLE4=What The Deal
TTITLE5=I Finaly Know
TTITLE6=Pass You By
TTITLE7=Dreams
TTITLE8=I Do
TTITLE9=Thank You In Advance
TTITLE10=Never Go Away
TTITLE11=Lovely
TTITLE12=Know What You Want
TTITLE13=Do You Remember
TTITLE14=I Miss You.
TTITLE15=Marry Me
TTITLE16=Darlin'
EXTD=
EXTT0=
EXTT1=
EXTT2=
EXTT3=
EXTT4=
EXTT5=
EXTT6=
EXTT7=
EXTT8=
EXTT9=
EXTT10=
EXTT11=
EXTT12=
EXTT13=
EXTT14=
EXTT15=
EXTT16=
PLAYORDER=
